<?xml version="1.0" encoding="UTF-8"?> <svg xmlns="http://www.w3.org/2000/svg" xmlns:xlink="http://www.w3.org/1999/xlink" id="Layer_2" viewBox="0 0 80 80"><defs><style>.cls-1{fill:#fff;fill-rule:evenodd;}.cls-2{clip-path:url(#clippath);}.cls-3{fill:none;}</style><clipPath id="clippath"><rect class="cls-3" width="80" height="80"></rect></clipPath></defs><g id="Layer_1-2"><g class="cls-2"><path class="cls-1" d="M53.41,13.65c-.12,.06-.26,.12-.46,.16-.87,1.24-.35,1.09-1.89,2.13,0,2.07,.06,2.3,.55,4.13,.01,.04,0,.09-.02,.13-.02,.04-.06,.06-.1,.07-.37,.08-.91,.22-1.22,.28,0,.07,.16,1.24,0,2.11-.26,1.37-3.53,4.38-4.31,4.53-1.08,.21-2.29-.74-4.17-1.57-.52-.23-2.26-1.37-3.18-1.68-.76-.25-1.52,1.59-.58,2.09,.44,.23,1.14,.54,1.36,1.11,.65,1.7-.1,8.23-1.45,9.55-.64,0-1.18-.59-1.65-.44-.85,.46-.31,3.06,0,3.51,5.22,5.37,4.6,9.35,6.82,12.31,1.01,0,.35,1.07,1.11,2.33,.2,.65-.06,1.74-.17,2.16v1.62c-.06,.17-.11,.34-.17,.51v1.42c-.16,.69-.33,1.62-.47,2.26-.31,1.36,.89,2.42,.17,3.71,0,.8,0,.64-.47,1.28,0,1.24-.29,3.84,0,4.76,.2,.64,2.52,3.35,3.1,3.61,1.4,.62,3.47,.49,2.8,2.7-4.11,1.26-6.73-.71-8.92-.74l-.1,.38c-1.4,0-2.52-.34-2.82-.44,0-.38,.45-3.28,.61-3.75,.16-.25,.32-.5,.47-.74,.17-.49-.17-4.12-.2-5.09-.88-.64-1.05-2.6-1.05-3.68-.25-.83-.25-1.82-.3-2.9-.02-.51-.33-1.25-.14-1.89,.13-.43,.62-.62,.74-.98v-1.21c.23-1.28,.16-1.87-.61-2.63-1.92,.02-2.18,.12-3.24-1.52-.33-.51-3.01-4.74-3.27-4.86-2.23-.98-1.79-.6-2.77-2.33-.04,0-.64,.2-1.16,.99-.8,1.19-2.21,5.08-2.62,6.44-.23,.76,0,1.6-.34,2.23-.25,.45-1.04,.6-1.21,.91-.78,1.41-.2,1.3-1.69,2.29-.27,.35-.28,.87-.47,1.28-.11,.16-.22,.32-.34,.47-.25,.54,.27,1.52,.17,1.86-.26,.88-.6,1.78-.94,2.6-.68,1.62-.59,3.78-1.28,4.77-.35,.5-1.18,.01-1.82,.42-.04,.35-1.05,2.66-1.25,3.31v3.68c.19,.62,.71,1.21,.56,1.99-.17,.84-3.07,.82-4.65,.6-1.06-.15-1.37-.93-1.36-1.83,.02-1.06,2.17-7.96,2.04-8.42-1.63-1.83,.44-3.72,1.05-5.43,.3-.83,.11-2,.44-2.77,.57-1.05,1.15-2.09,1.72-3.14,1.05-.99,.58-1.04,1.15-1.92,.49-.77,1.09-1.29,.74-2.46-.7-2.37,.81-5.72,.91-8.2-.27-.28-1.17-.19-1.29-.95-.23-1.54,.58-4.26,1.08-4.52,.22-.11,.48-.01,.67-.13,0-1.15-1.15-7.57-.28-7.9,.54-.2,1.77-.31,2.01-.41-.01-.27-.2-.86-.43-.89-.38-.05-1.17-.2-1.79-.35-1.92-.44-.14-8-.12-8.04,.53-.7,2.98,.24,3.27-.94,.82-1.04-.63-5.06,2.16-10.01,.94-1.67,2.75-3.36,4.86-2.64,.71,.24,.28,1.25,1.52,.17,.03-.63-.26-1.16-.44-1.69-2.06-6.15,4.93-9.49,9.82-5.97,.55,.22,.87,.33,1.28,.64,.27,1.39,1.65,3.87,.27,5.5-.56,.12-1.26,.44-1.69,.74,0,.56,.07,1.08,.17,1.42,.09,.3,.27,.42-.19,.61-.06,.02-.03,.21,0,.28,1.14,.22,2.36-.21,3.12-.52h.91v-1.15h.44v-.9h.44v1.56h1.14v.49h16.87v.88h.75v-3.2h.63v2.61h1.44v1.49h4.46v-.44h.74v.19h2.11v1.24h-2.11v.19h-.74v-.44h-4.46v.44h-1.97v-.3h-.84v.9h-7.45Z"></path></g></g></svg> 